<svg width="60" height="60" viewBox="0 0 60 60" fill="none" xmlns="http://www.w3.org/2000/svg">
<rect width="60" height="60" rx="30" fill="#272838"/>
<g clip-path="url(#clip0_1617_7395)">
<path d="M30 14C21.1653 14 14 21.164 14 30C14 37.0693 18.584 43.0667 24.9427 45.1827C25.7413 45.3307 26 44.8347 26 44.4133V41.4347C21.5493 42.4027 20.6227 39.5467 20.6227 39.5467C19.8947 37.6973 18.8453 37.2053 18.8453 37.2053C17.3933 36.212 18.956 36.2333 18.956 36.2333C20.5627 36.3453 21.408 37.8827 21.408 37.8827C22.8347 40.328 25.1507 39.6213 26.064 39.212C26.2067 38.1787 26.6213 37.472 27.08 37.0733C23.5267 36.6667 19.7907 35.2947 19.7907 29.1653C19.7907 27.4173 20.416 25.9907 21.4387 24.8707C21.2733 24.4667 20.7253 22.8387 21.5947 20.636C21.5947 20.636 22.9387 20.2067 25.996 22.276C27.272 21.9213 28.64 21.744 30 21.7373C31.36 21.744 32.7293 21.9213 34.008 22.276C37.0627 20.2067 38.404 20.636 38.404 20.636C39.2747 22.84 38.7267 24.468 38.5613 24.8707C39.588 25.9907 40.208 27.4187 40.208 29.1653C40.208 35.3107 36.4653 36.664 32.9027 37.06C33.476 37.556 34 38.5293 34 40.0227V44.4133C34 44.8387 34.256 45.3387 35.068 45.1813C41.4213 43.0627 46 37.0667 46 30C46 21.164 38.836 14 30 14Z" fill="white"/>
</g>
<defs>
<clipPath id="clip0_1617_7395">
<rect width="32" height="32" fill="white" transform="translate(14 14)"/>
</clipPath>
</defs>
</svg>
