<svg width="60" height="60" viewBox="0 0 60 60" fill="none" xmlns="http://www.w3.org/2000/svg">
<rect width="60" height="60" rx="30" fill="#272838"/>
<g clip-path="url(#clip0_1617_7398)">
<path d="M30 14C21.164 14 14 21.164 14 30C14 38.836 21.164 46 30 46C38.836 46 46 38.836 46 30C46 21.164 38.836 14 30 14ZM27.3333 35.3333H24.6667V27.3333H27.3333V35.3333ZM26 26.1453C25.1907 26.1453 24.5333 25.484 24.5333 24.6667C24.5333 23.8507 25.1893 23.188 26 23.188C26.8107 23.188 27.4667 23.8507 27.4667 24.6667C27.4667 25.484 26.8093 26.1453 26 26.1453ZM36.6667 35.3333H34.0027V31.5187C34.0027 29.0107 31.3333 29.2227 31.3333 31.5187V35.3333H28.6667V27.3333H31.3333V28.7907C32.496 26.636 36.6667 26.476 36.6667 30.8547V35.3333Z" fill="white"/>
</g>
<defs>
<clipPath id="clip0_1617_7398">
<rect width="32" height="32" fill="white" transform="translate(14 14)"/>
</clipPath>
</defs>
</svg>
