<svg width="600" height="600" viewBox="0 0 600 600" fill="none" xmlns="http://www.w3.org/2000/svg">
<path d="M0 300C0 134.315 134.315 0 300 0C465.685 0 600 134.315 600 300C600 465.685 465.685 600 300 600C134.315 600 0 465.685 0 300Z" fill="#13141C"/>
<path d="M116.712 242.872L116.711 213.937L132.518 202.871L132.519 231.806L116.712 242.872Z" fill="#ACB1B5"/>
<path d="M116.711 194.646L116.71 185.001L132.517 173.936L132.518 183.581L116.711 194.646Z" fill="#ACB1B5"/>
<path d="M150.13 213.938L116.711 194.646L132.518 183.581L165.937 202.872L150.13 213.938Z" fill="white"/>
<path d="M190.208 285.297L190.207 256.362L206.014 245.297L206.015 274.232L190.208 285.297Z" fill="#ACB1B5"/>
<path d="M166.838 194.648L100 156.065L115.807 145L182.645 183.582L166.838 194.648Z" fill="white"/>
<path d="M166.84 242.873L166.838 194.648L182.645 183.583L182.647 231.808L166.84 242.873Z" fill="#ACB1B5"/>
<path d="M190.207 237.072L190.206 227.427L206.013 216.361L206.014 226.007L190.207 237.072Z" fill="#ACB1B5"/>
<path d="M223.626 256.363L190.207 237.072L206.014 226.007L239.433 245.298L223.626 256.363Z" fill="white"/>
<path d="M263.704 327.723L263.703 298.788L279.51 287.722L279.511 316.658L263.704 327.723Z" fill="#ACB1B5"/>
<path d="M240.337 314.234L240.335 237.074L256.142 226.008L256.144 303.169L240.337 314.234Z" fill="#ACB1B5"/>
<path d="M240.335 237.074L173.496 198.491L189.303 187.426L256.142 226.008L240.335 237.074Z" fill="white"/>
<path d="M263.703 279.498L263.703 269.853L279.51 258.787L279.51 268.432L263.703 279.498Z" fill="#ACB1B5"/>
<path d="M297.122 298.789L263.703 279.498L279.51 268.432L312.929 287.723L297.122 298.789Z" fill="white"/>
<path d="M337.201 370.149L337.2 341.213L353.007 330.148L353.008 359.083L337.201 370.149Z" fill="#ACB1B5"/>
<path d="M313.831 279.499L246.992 240.917L262.799 229.851L329.638 268.434L313.831 279.499Z" fill="white"/>
<path d="M313.832 327.725L313.831 279.499L329.638 268.434L329.639 316.659L313.832 327.725Z" fill="#ACB1B5"/>
<path d="M337.199 321.923L337.199 312.278L353.006 301.213L353.006 310.858L337.199 321.923Z" fill="#ACB1B5"/>
<path d="M370.618 341.214L337.199 321.923L353.006 310.858L386.425 330.149L370.618 341.214Z" fill="white"/>
<path d="M387.329 399.086L387.327 321.925L403.134 310.859L403.136 388.02L387.329 399.086Z" fill="#ACB1B5"/>
<path d="M387.327 321.925L320.488 283.342L336.296 272.277L403.134 310.859L387.327 321.925Z" fill="white"/>
<path d="M410.697 412.574L410.694 335.414L426.501 324.348L426.504 401.509L410.697 412.574Z" fill="#5A61A2"/>
<path d="M467.483 426.064L434.063 406.773L449.87 395.708L483.29 414.999L467.483 426.064Z" fill="#858AE3"/>
<path d="M434.063 406.773L434.062 368.193L449.869 357.127L449.87 395.708L434.063 406.773Z" fill="#5A61A2"/>
<path d="M410.694 335.414L393.985 325.768L409.792 314.703L426.501 324.348L410.694 335.414Z" fill="#858AE3"/>
<path d="M484.193 455L484.19 377.839L499.997 366.774L500 443.935L484.193 455Z" fill="#5A61A2"/>
<path d="M484.19 377.839L417.352 339.257L433.159 328.191L499.997 366.774L484.19 377.839Z" fill="#858AE3"/>
<path d="M150.13 213.938L150.129 204.292L116.71 185.001L116.711 194.646L150.13 213.938ZM100.002 233.226L100 156.065L166.838 194.648L166.84 242.873L116.711 213.936L116.712 242.872L100.002 233.226Z" fill="#DBE3E9"/>
<path d="M223.626 256.363L223.626 246.718L190.206 227.427L190.207 237.072L223.626 256.363ZM173.499 275.652L173.496 198.491L240.335 237.074L240.337 314.234L223.627 304.589L223.627 275.653L190.207 256.362L190.208 285.297L173.499 275.652Z" fill="#DBE3E9"/>
<path d="M297.122 298.789L297.122 289.144L263.703 269.852L263.703 279.498L297.122 298.789ZM246.995 318.077L246.992 240.917L313.831 279.499L313.832 327.725L263.703 298.788L263.704 327.723L246.995 318.077Z" fill="#DBE3E9"/>
<path d="M370.618 341.214L370.618 331.569L337.199 312.278L337.199 321.923L370.618 341.214ZM320.491 360.503L320.488 283.342L387.327 321.925L387.329 399.085L370.62 389.44L370.619 360.505L337.2 341.213L337.201 370.149L320.491 360.503Z" fill="#DBE3E9"/>
<path d="M393.987 402.929L393.985 325.768L410.694 335.414L410.697 412.574L393.987 402.929Z" fill="#747CD0"/>
<path d="M467.483 426.064L467.481 387.484L434.062 368.193L434.063 406.773L467.483 426.064ZM417.354 416.417L417.352 339.257L484.19 377.839L484.193 455L417.354 416.417Z" fill="#747CD0"/>
</svg>
