<svg width="32" height="32" viewBox="0 0 32 32" fill="none" xmlns="http://www.w3.org/2000/svg">
<g clip-path="url(#clip0_1614_4099)">
<path fill-rule="evenodd" clip-rule="evenodd" d="M24.5121 30.372C24.9414 30.676 25.4948 30.752 25.9881 30.5653C26.4814 30.3773 26.8441 29.956 26.9534 29.4453C28.1121 24 30.9228 10.2173 31.9774 5.26401C32.0574 4.89068 31.9241 4.50268 31.6308 4.25335C31.3374 4.00401 30.9308 3.93201 30.5681 4.06668C24.9774 6.13601 7.7601 12.596 0.72277 15.2C0.276103 15.3653 -0.0145634 15.7947 0.000103226 16.2653C0.0161032 16.7373 0.333437 17.1467 0.79077 17.284C3.94677 18.228 8.08944 19.5413 8.08944 19.5413C8.08944 19.5413 10.0254 25.388 11.0348 28.3613C11.1614 28.7347 11.4534 29.028 11.8388 29.1293C12.2228 29.2293 12.6334 29.124 12.9201 28.8533C14.5414 27.3227 17.0481 24.956 17.0481 24.956C17.0481 24.956 21.8108 28.448 24.5121 30.372ZM9.8321 18.8027L12.0708 26.1867L12.5681 21.5107C12.5681 21.5107 21.2174 13.7093 26.1481 9.26268C26.2921 9.13201 26.3121 8.91335 26.1921 8.76001C26.0734 8.60668 25.8548 8.57068 25.6908 8.67468C19.9761 12.324 9.8321 18.8027 9.8321 18.8027Z" fill="white"/>
</g>
<defs>
<clipPath id="clip0_1614_4099">
<rect width="32" height="32" fill="white"/>
</clipPath>
</defs>
</svg>
