<svg width="60" height="60" viewBox="0 0 60 60" fill="none" xmlns="http://www.w3.org/2000/svg">
<rect width="60" height="60" rx="30" fill="#272838"/>
<g clip-path="url(#clip0_1617_7397)">
<path fill-rule="evenodd" clip-rule="evenodd" d="M38.5121 44.372C38.9415 44.676 39.4948 44.752 39.9881 44.5653C40.4815 44.3773 40.8441 43.956 40.9535 43.4453C42.1121 38 44.9228 24.2173 45.9775 19.264C46.0575 18.8907 45.9241 18.5027 45.6308 18.2533C45.3375 18.004 44.9308 17.932 44.5681 18.0667C38.9775 20.136 21.7601 26.596 14.7228 29.2C14.2761 29.3653 13.9855 29.7947 14.0001 30.2653C14.0161 30.7373 14.3335 31.1467 14.7908 31.284C17.9468 32.228 22.0895 33.5413 22.0895 33.5413C22.0895 33.5413 24.0255 39.388 25.0348 42.3613C25.1615 42.7347 25.4535 43.028 25.8388 43.1293C26.2228 43.2293 26.6335 43.124 26.9201 42.8533C28.5415 41.3227 31.0481 38.956 31.0481 38.956C31.0481 38.956 35.8108 42.448 38.5121 44.372ZM23.8321 32.8027L26.0708 40.1867L26.5681 35.5107C26.5681 35.5107 35.2175 27.7093 40.1481 23.2627C40.2921 23.132 40.3121 22.9133 40.1921 22.76C40.0735 22.6067 39.8548 22.5707 39.6908 22.6747C33.9761 26.324 23.8321 32.8027 23.8321 32.8027Z" fill="white"/>
</g>
<defs>
<clipPath id="clip0_1617_7397">
<rect width="32" height="32" fill="white" transform="translate(14 14)"/>
</clipPath>
</defs>
</svg>
